<svg width="900" height="73" viewBox="0 0 900 73" fill="none" xmlns="http://www.w3.org/2000/svg">
<path d="M0 4.99999L7.2 6.79998C14.3 8.69998 28.7 12.3 43 13.7C57.3 15 71.7 14 86 12.3C100.3 10.7 114.7 8.29999 128.8 7.99999C143 7.69999 157 9.29998 171.2 9.79998C185.3 10.3 199.7 9.69999 214 7.99999C228.3 6.29999 242.7 3.7 257 2.2C271.3 0.700003 285.7 0.300003 300 2.2C314.3 4 328.7 8 343 8.7C357.3 9.3 371.7 6.69999 386 6.49999C400.3 6.29999 414.7 8.69998 428.8 7.79998C443 6.99998 457 3 471.2 3.7C485.3 4.3 499.7 9.69998 514 9.29998C528.3 8.99998 542.7 2.99999 557 2.49999C571.3 1.99999 585.7 7 600 8.2C614.3 9.3 628.7 6.69999 643 3.99999C657.3 1.29999 671.7 -1.30002 686 0.799978C700.3 2.99998 714.7 10 728.8 12.2C743 14.3 757 11.7 771.2 12.2C785.3 12.7 799.7 16.3 814 16.8C828.3 17.3 842.7 14.7 857 12.5C871.3 10.3 885.7 8.69998 892.8 7.79998L900 6.99999V74H892.8C885.7 74 871.3 74 857 74C842.7 74 828.3 74 814 74C799.7 74 785.3 74 771.2 74C757 74 743 74 728.8 74C714.7 74 700.3 74 686 74C671.7 74 657.3 74 643 74C628.7 74 614.3 74 600 74C585.7 74 571.3 74 557 74C542.7 74 528.3 74 514 74C499.7 74 485.3 74 471.2 74C457 74 443 74 428.8 74C414.7 74 400.3 74 386 74C371.7 74 357.3 74 343 74C328.7 74 314.3 74 300 74C285.7 74 271.3 74 257 74C242.7 74 228.3 74 214 74C199.7 74 185.3 74 171.2 74C157 74 143 74 128.8 74C114.7 74 100.3 74 86 74C71.7 74 57.3 74 43 74C28.7 74 14.3 74 7.2 74H0V4.99999Z" fill="#4FACF7"/>
<path d="M0 19L7.2 18.7C14.3 18.3 28.7 17.7 43 17.5C57.3 17.3 71.7 17.7 86 15.5C100.3 13.3 114.7 8.69999 128.8 7.99999C143 7.29999 157 10.7 171.2 13.3C185.3 16 199.7 18 214 16.8C228.3 15.7 242.7 11.3 257 9.49999C271.3 7.69999 285.7 8.29999 300 8.99999C314.3 9.69999 328.7 10.3 343 9.7C357.3 9 371.7 6.99998 386 5.79998C400.3 4.69998 414.7 4.3 428.8 7.7C443 11 457 18 471.2 20.3C485.3 22.7 499.7 20.3 514 18.2C528.3 16 542.7 14 557 12.5C571.3 11 585.7 9.99998 600 9.29998C614.3 8.69998 628.7 8.3 643 8.7C657.3 9 671.7 9.99999 686 12.5C700.3 15 714.7 19 728.8 19.8C743 20.7 757 18.3 771.2 17.7C785.3 17 799.7 18 814 16.5C828.3 15 842.7 11 857 9.2C871.3 7.3 885.7 7.69998 892.8 7.79998L900 7.99999V74H892.8C885.7 74 871.3 74 857 74C842.7 74 828.3 74 814 74C799.7 74 785.3 74 771.2 74C757 74 743 74 728.8 74C714.7 74 700.3 74 686 74C671.7 74 657.3 74 643 74C628.7 74 614.3 74 600 74C585.7 74 571.3 74 557 74C542.7 74 528.3 74 514 74C499.7 74 485.3 74 471.2 74C457 74 443 74 428.8 74C414.7 74 400.3 74 386 74C371.7 74 357.3 74 343 74C328.7 74 314.3 74 300 74C285.7 74 271.3 74 257 74C242.7 74 228.3 74 214 74C199.7 74 185.3 74 171.2 74C157 74 143 74 128.8 74C114.7 74 100.3 74 86 74C71.7 74 57.3 74 43 74C28.7 74 14.3 74 7.2 74H0V19Z" fill="#6CB5F8"/>
<path d="M0 30L7.2 27.3C14.3 24.7 28.7 19.3 43 17.5C57.3 15.7 71.7 17.3 86 18C100.3 18.7 114.7 18.3 128.8 18.5C143 18.7 157 19.3 171.2 19.3C185.3 19.3 199.7 18.7 214 18.5C228.3 18.3 242.7 18.7 257 20.8C271.3 23 285.7 27 300 28C314.3 29 328.7 27 343 26C357.3 25 371.7 25 386 25.8C400.3 26.7 414.7 28.3 428.8 28.3C443 28.3 457 26.7 471.2 24.2C485.3 21.7 499.7 18.3 514 16.5C528.3 14.7 542.7 14.3 557 16.5C571.3 18.7 585.7 23.3 600 23.2C614.3 23 628.7 18 643 17.7C657.3 17.3 671.7 21.7 686 22.3C700.3 23 714.7 20 728.8 19.2C743 18.3 757 19.7 771.2 20.7C785.3 21.7 799.7 22.3 814 22.7C828.3 23 842.7 23 857 20.8C871.3 18.7 885.7 14.3 892.8 12.2L900 10V74H892.8C885.7 74 871.3 74 857 74C842.7 74 828.3 74 814 74C799.7 74 785.3 74 771.2 74C757 74 743 74 728.8 74C714.7 74 700.3 74 686 74C671.7 74 657.3 74 643 74C628.7 74 614.3 74 600 74C585.7 74 571.3 74 557 74C542.7 74 528.3 74 514 74C499.7 74 485.3 74 471.2 74C457 74 443 74 428.8 74C414.7 74 400.3 74 386 74C371.7 74 357.3 74 343 74C328.7 74 314.3 74 300 74C285.7 74 271.3 74 257 74C242.7 74 228.3 74 214 74C199.7 74 185.3 74 171.2 74C157 74 143 74 128.8 74C114.7 74 100.3 74 86 74C71.7 74 57.3 74 43 74C28.7 74 14.3 74 7.2 74H0V30Z" fill="#83BDF9"/>
<path d="M0 32L7.2 30.8C14.3 29.7 28.7 27.3 43 24.8C57.3 22.3 71.7 19.7 86 20.5C100.3 21.3 114.7 25.7 128.8 28.8C143 32 157 34 171.2 32.8C185.3 31.7 199.7 27.3 214 25.5C228.3 23.7 242.7 24.3 257 25.5C271.3 26.7 285.7 28.3 300 30.2C314.3 32 328.7 34 343 33.2C357.3 32.3 371.7 28.7 386 27.5C400.3 26.3 414.7 27.7 428.8 27.7C443 27.7 457 26.3 471.2 25.3C485.3 24.3 499.7 23.7 514 24.5C528.3 25.3 542.7 27.7 557 28.2C571.3 28.7 585.7 27.3 600 25.7C614.3 24 628.7 22 643 23.2C657.3 24.3 671.7 28.7 686 29.3C700.3 30 714.7 27 728.8 25.7C743 24.3 757 24.7 771.2 26.5C785.3 28.3 799.7 31.7 814 31.5C828.3 31.3 842.7 27.7 857 26.3C871.3 25 885.7 26 892.8 26.5L900 27V74H892.8C885.7 74 871.3 74 857 74C842.7 74 828.3 74 814 74C799.7 74 785.3 74 771.2 74C757 74 743 74 728.8 74C714.7 74 700.3 74 686 74C671.7 74 657.3 74 643 74C628.7 74 614.3 74 600 74C585.7 74 571.3 74 557 74C542.7 74 528.3 74 514 74C499.7 74 485.3 74 471.2 74C457 74 443 74 428.8 74C414.7 74 400.3 74 386 74C371.7 74 357.3 74 343 74C328.7 74 314.3 74 300 74C285.7 74 271.3 74 257 74C242.7 74 228.3 74 214 74C199.7 74 185.3 74 171.2 74C157 74 143 74 128.8 74C114.7 74 100.3 74 86 74C71.7 74 57.3 74 43 74C28.7 74 14.3 74 7.2 74H0V32Z" fill="#98C6FA"/>
<path d="M0 29L7.2 28.5C14.3 28 28.7 27 43 28.8C57.3 30.7 71.7 35.3 86 37.2C100.3 39 114.7 38 128.8 36.3C143 34.7 157 32.3 171.2 30.3C185.3 28.3 199.7 26.7 214 27.8C228.3 29 242.7 33 257 35C271.3 37 285.7 37 300 37.5C314.3 38 328.7 39 343 38C357.3 37 371.7 34 386 34C400.3 34 414.7 37 428.8 38.2C443 39.3 457 38.7 471.2 38.7C485.3 38.7 499.7 39.3 514 38.7C528.3 38 542.7 36 557 34.7C571.3 33.3 585.7 32.7 600 31.7C614.3 30.7 628.7 29.3 643 30.2C657.3 31 671.7 34 686 34C700.3 34 714.7 31 728.8 29.7C743 28.3 757 28.7 771.2 28.2C785.3 27.7 799.7 26.3 814 28C828.3 29.7 842.7 34.3 857 37.2C871.3 40 885.7 41 892.8 41.5L900 42V74H892.8C885.7 74 871.3 74 857 74C842.7 74 828.3 74 814 74C799.7 74 785.3 74 771.2 74C757 74 743 74 728.8 74C714.7 74 700.3 74 686 74C671.7 74 657.3 74 643 74C628.7 74 614.3 74 600 74C585.7 74 571.3 74 557 74C542.7 74 528.3 74 514 74C499.7 74 485.3 74 471.2 74C457 74 443 74 428.8 74C414.7 74 400.3 74 386 74C371.7 74 357.3 74 343 74C328.7 74 314.3 74 300 74C285.7 74 271.3 74 257 74C242.7 74 228.3 74 214 74C199.7 74 185.3 74 171.2 74C157 74 143 74 128.8 74C114.7 74 100.3 74 86 74C71.7 74 57.3 74 43 74C28.7 74 14.3 74 7.2 74H0V29Z" fill="#ABCFFC"/>
<path d="M0 37L7.2 36C14.3 35 28.7 33 43 34.2C57.3 35.3 71.7 39.7 86 40.3C100.3 41 114.7 38 128.8 36.8C143 35.7 157 36.3 171.2 37.5C185.3 38.7 199.7 40.3 214 40.7C228.3 41 242.7 40 257 39.7C271.3 39.3 285.7 39.7 300 38.7C314.3 37.7 328.7 35.3 343 34.3C357.3 33.3 371.7 33.7 386 34.2C400.3 34.7 414.7 35.3 428.8 35.7C443 36 457 36 471.2 36.2C485.3 36.3 499.7 36.7 514 36.3C528.3 36 542.7 35 557 34.7C571.3 34.3 585.7 34.7 600 34.5C614.3 34.3 628.7 33.7 643 34C657.3 34.3 671.7 35.7 686 38C700.3 40.3 714.7 43.7 728.8 43.7C743 43.7 757 40.3 771.2 39.5C785.3 38.7 799.7 40.3 814 40.2C828.3 40 842.7 38 857 38.8C871.3 39.7 885.7 43.3 892.8 45.2L900 47V74H892.8C885.7 74 871.3 74 857 74C842.7 74 828.3 74 814 74C799.7 74 785.3 74 771.2 74C757 74 743 74 728.8 74C714.7 74 700.3 74 686 74C671.7 74 657.3 74 643 74C628.7 74 614.3 74 600 74C585.7 74 571.3 74 557 74C542.7 74 528.3 74 514 74C499.7 74 485.3 74 471.2 74C457 74 443 74 428.8 74C414.7 74 400.3 74 386 74C371.7 74 357.3 74 343 74C328.7 74 314.3 74 300 74C285.7 74 271.3 74 257 74C242.7 74 228.3 74 214 74C199.7 74 185.3 74 171.2 74C157 74 143 74 128.8 74C114.7 74 100.3 74 86 74C71.7 74 57.3 74 43 74C28.7 74 14.3 74 7.2 74H0V37Z" fill="#BDD9FC"/>
<path d="M0 39H7.2C14.3 39 28.7 39 43 40.2C57.3 41.3 71.7 43.7 86 45.7C100.3 47.7 114.7 49.3 128.8 49.2C143 49 157 47 171.2 45.7C185.3 44.3 199.7 43.7 214 43.3C228.3 43 242.7 43 257 44.3C271.3 45.7 285.7 48.3 300 48.2C314.3 48 328.7 45 343 45.3C357.3 45.7 371.7 49.3 386 49.3C400.3 49.3 414.7 45.7 428.8 44.2C443 42.7 457 43.3 471.2 43.2C485.3 43 499.7 42 514 41C528.3 40 542.7 39 557 39C571.3 39 585.7 40 600 42.3C614.3 44.7 628.7 48.3 643 47.8C657.3 47.3 671.7 42.7 686 40.8C700.3 39 714.7 40 728.8 40.2C743 40.3 757 39.7 771.2 39.7C785.3 39.7 799.7 40.3 814 41C828.3 41.7 842.7 42.3 857 43.8C871.3 45.3 885.7 47.7 892.8 48.8L900 50V74H892.8C885.7 74 871.3 74 857 74C842.7 74 828.3 74 814 74C799.7 74 785.3 74 771.2 74C757 74 743 74 728.8 74C714.7 74 700.3 74 686 74C671.7 74 657.3 74 643 74C628.7 74 614.3 74 600 74C585.7 74 571.3 74 557 74C542.7 74 528.3 74 514 74C499.7 74 485.3 74 471.2 74C457 74 443 74 428.8 74C414.7 74 400.3 74 386 74C371.7 74 357.3 74 343 74C328.7 74 314.3 74 300 74C285.7 74 271.3 74 257 74C242.7 74 228.3 74 214 74C199.7 74 185.3 74 171.2 74C157 74 143 74 128.8 74C114.7 74 100.3 74 86 74C71.7 74 57.3 74 43 74C28.7 74 14.3 74 7.2 74H0V39Z" fill="#CEE2FD"/>
<path d="M0 52L7.2 51.5C14.3 51 28.7 50 43 49.3C57.3 48.7 71.7 48.3 86 48C100.3 47.7 114.7 47.3 128.8 48.7C143 50 157 53 171.2 53.7C185.3 54.3 199.7 52.7 214 52.5C228.3 52.3 242.7 53.7 257 53.3C271.3 53 285.7 51 300 51.5C314.3 52 328.7 55 343 55.8C357.3 56.7 371.7 55.3 386 53.5C400.3 51.7 414.7 49.3 428.8 48.7C443 48 457 49 471.2 50.7C485.3 52.3 499.7 54.7 514 54.3C528.3 54 542.7 51 557 50.7C571.3 50.3 585.7 52.7 600 53C614.3 53.3 628.7 51.7 643 51.8C657.3 52 671.7 54 686 55C700.3 56 714.7 56 728.8 54.8C743 53.7 757 51.3 771.2 50.8C785.3 50.3 799.7 51.7 814 51.8C828.3 52 842.7 51 857 51.7C871.3 52.3 885.7 54.7 892.8 55.8L900 57V74H892.8C885.7 74 871.3 74 857 74C842.7 74 828.3 74 814 74C799.7 74 785.3 74 771.2 74C757 74 743 74 728.8 74C714.7 74 700.3 74 686 74C671.7 74 657.3 74 643 74C628.7 74 614.3 74 600 74C585.7 74 571.3 74 557 74C542.7 74 528.3 74 514 74C499.7 74 485.3 74 471.2 74C457 74 443 74 428.8 74C414.7 74 400.3 74 386 74C371.7 74 357.3 74 343 74C328.7 74 314.3 74 300 74C285.7 74 271.3 74 257 74C242.7 74 228.3 74 214 74C199.7 74 185.3 74 171.2 74C157 74 143 74 128.8 74C114.7 74 100.3 74 86 74C71.7 74 57.3 74 43 74C28.7 74 14.3 74 7.2 74H0V52Z" fill="#DFECFE"/>
<path d="M0 59L7.2 59.3C14.3 59.7 28.7 60.3 43 60.5C57.3 60.7 71.7 60.3 86 60.7C100.3 61 114.7 62 128.8 61.7C143 61.3 157 59.7 171.2 59.7C185.3 59.7 199.7 61.3 214 61.8C228.3 62.3 242.7 61.7 257 61.5C271.3 61.3 285.7 61.7 300 61C314.3 60.3 328.7 58.7 343 57.2C357.3 55.7 371.7 54.3 386 55C400.3 55.7 414.7 58.3 428.8 58.7C443 59 457 57 471.2 55.7C485.3 54.3 499.7 53.7 514 53.8C528.3 54 542.7 55 557 56.7C571.3 58.3 585.7 60.7 600 61.7C614.3 62.7 628.7 62.3 643 61.8C657.3 61.3 671.7 60.7 686 59.2C700.3 57.7 714.7 55.3 728.8 55.3C743 55.3 757 57.7 771.2 58.5C785.3 59.3 799.7 58.7 814 57.8C828.3 57 842.7 56 857 56.7C871.3 57.3 885.7 59.7 892.8 60.8L900 62V74H892.8C885.7 74 871.3 74 857 74C842.7 74 828.3 74 814 74C799.7 74 785.3 74 771.2 74C757 74 743 74 728.8 74C714.7 74 700.3 74 686 74C671.7 74 657.3 74 643 74C628.7 74 614.3 74 600 74C585.7 74 571.3 74 557 74C542.7 74 528.3 74 514 74C499.7 74 485.3 74 471.2 74C457 74 443 74 428.8 74C414.7 74 400.3 74 386 74C371.7 74 357.3 74 343 74C328.7 74 314.3 74 300 74C285.7 74 271.3 74 257 74C242.7 74 228.3 74 214 74C199.7 74 185.3 74 171.2 74C157 74 143 74 128.8 74C114.7 74 100.3 74 86 74C71.7 74 57.3 74 43 74C28.7 74 14.3 74 7.2 74H0V59Z" fill="#EFF5FE"/>
<path d="M0 63L7.2 62.7C14.3 62.3 28.7 61.7 43 61.7C57.3 61.7 71.7 62.3 86 62.2C100.3 62 114.7 61 128.8 61.5C143 62 157 64 171.2 64.3C185.3 64.7 199.7 63.3 214 63.5C228.3 63.7 242.7 65.3 257 65.3C271.3 65.3 285.7 63.7 300 63C314.3 62.3 328.7 62.7 343 62.7C357.3 62.7 371.7 62.3 386 63C400.3 63.7 414.7 65.3 428.8 65C443 64.7 457 62.3 471.2 62.5C485.3 62.7 499.7 65.3 514 66.2C528.3 67 542.7 66 557 65C571.3 64 585.7 63 600 62.8C614.3 62.7 628.7 63.3 643 63.8C657.3 64.3 671.7 64.7 686 64.2C700.3 63.7 714.7 62.3 728.8 62.3C743 62.3 757 63.7 771.2 64.7C785.3 65.7 799.7 66.3 814 65.8C828.3 65.3 842.7 63.7 857 63.5C871.3 63.3 885.7 64.7 892.8 65.3L900 66V74H892.8C885.7 74 871.3 74 857 74C842.7 74 828.3 74 814 74C799.7 74 785.3 74 771.2 74C757 74 743 74 728.8 74C714.7 74 700.3 74 686 74C671.7 74 657.3 74 643 74C628.7 74 614.3 74 600 74C585.7 74 571.3 74 557 74C542.7 74 528.3 74 514 74C499.7 74 485.3 74 471.2 74C457 74 443 74 428.8 74C414.7 74 400.3 74 386 74C371.7 74 357.3 74 343 74C328.7 74 314.3 74 300 74C285.7 74 271.3 74 257 74C242.7 74 228.3 74 214 74C199.7 74 185.3 74 171.2 74C157 74 143 74 128.8 74C114.7 74 100.3 74 86 74C71.7 74 57.3 74 43 74C28.7 74 14.3 74 7.2 74H0V63Z" fill="white"/>
</svg>
